<svg xmlns="http://www.w3.org/2000/svg" width="72" height="70" viewBox="0 0 72 70"><path fill="#FFF" fill-rule="evenodd" d="M12.476 62.954c3.72.764 6.602.213 8.646-1.654 2.544-2.321 3.77-5.099 3.68-8.331-2.453 2.23-5.599 3.346-9.437 3.346C2.045 56.042 0 43.135 0 39.72c0-3.414 2.112-15.843 15.365-16.458 3.702.182 6.848 1.298 9.437 3.347v-3.347h6.064v34.624c-.409 4.188-1.999 7.307-4.77 9.356-2.77 2.049-7.31 2.956-13.62 2.722v-7.01zm3.134-13.65c5.055 0 9.153-4.312 9.153-9.632 0-5.32-4.098-9.632-9.153-9.632-5.055 0-9.153 4.312-9.153 9.632 0 5.32 4.098 9.633 9.153 9.633zm37.528 7.34c-8.846 0-16.018-7.496-16.018-16.742 0-9.247 7.172-16.743 16.018-16.743 8.847 0 16.018 7.496 16.018 16.743 0 9.246-7.171 16.742-16.018 16.742zm0-7.34c5.055 0 9.153-4.312 9.153-9.632 0-5.32-4.098-9.632-9.153-9.632-5.055 0-9.153 4.312-9.153 9.632 0 5.32 4.098 9.633 9.153 9.633zm-8.695-30.377c2.407-2.683 5.256-4.024 8.547-4.024 3.29 0 6.14 1.341 8.547 4.024l-2.652 2.658c-1.578-1.772-3.543-2.658-5.895-2.658-2.352 0-4.317.886-5.896 2.658l-2.651-2.658zm-5.432-5.353c3.126-3.924 7.758-5.886 13.895-5.886s10.77 1.962 13.895 5.886l-2.741 2.748c-2.897-3.294-6.615-4.94-11.154-4.94-4.54 0-8.257 1.646-11.154 4.94l-2.741-2.748zm-5.304-5.225C39.32 2.783 45.702 0 52.854 0 60.004 0 66.387 2.783 72 8.349l-2.727 2.732C64.5 6.256 59.026 3.844 52.853 3.844c-6.172 0-11.645 2.412-16.42 7.237L33.708 8.35z"/></svg>