<svg xmlns="http://www.w3.org/2000/svg" width="133" height="20" viewBox="0 0 133 20"><path fill="#FFF" d="M109.828.595l.258 14.659h-.104L105.613.594h-7.055v18.483h4.675l-.263-15.165h.105l4.692 15.165h6.769V.595h-4.708zm-89.477 0l-3.524 18.674h5.138l2.6-16.944.105-.001 2.534 16.945h5.106L28.807.595h-8.456zm28.72 0h7.75l.419 18.674h-4.755l-.119-16.787-.104.001-3.177 16.786h-4.823L41.087 2.482h-.105l-.119 16.787h-4.757L36.525.595h7.752l2.342 14.28h.108L49.07.594zM8.827 14c-.979-2.417-7.734-3.52-8.558-7.337-.2-.94-.181-1.686-.044-2.518C.73 1.1 3.492 0 6.871 0c2.69 0 6.409.636 6.409 4.703V6.02H8.536V4.862c0-1.018-.652-1.692-1.766-1.692-1.188 0-1.601.655-1.736 1.254-.048.209-.07.602.02.982.539 2.186 7.75 3.352 8.553 7.263.081.393.251 1.449.02 3.06C13.175 18.849 10.347 20 6.908 20 3.336 20 0 18.742 0 14.576l.002-1.44h5.097l.004 1.81c0 1.017.721 1.694 1.91 1.694 1.267 0 1.697-.635 1.852-1.257.089-.35.148-.93-.038-1.382zm61.799-.035c-.97-2.394-7.66-3.485-8.472-7.267-.2-.93-.182-1.667-.044-2.492.497-3.016 3.234-4.103 6.576-4.103 2.664 0 6.347.629 6.347 4.656v1.3h-4.697V4.917c0-1.01-.644-1.675-1.75-1.675-1.174 0-1.584.648-1.719 1.242-.045.207-.068.596.024.97.53 2.164 7.67 3.318 8.466 7.19.081.392.248 1.437.02 3.032-.447 3.087-3.247 4.227-6.652 4.227-3.536 0-6.84-1.245-6.84-5.369l.001-1.426h5.047l.003 1.79c0 1.01.715 1.677 1.893 1.677 1.254 0 1.68-.627 1.833-1.242.089-.349.145-.919-.036-1.367zm15.957 2.508c1.321 0 1.728-.894 1.822-1.354a3.82 3.82 0 0 0 .045-.713V.592h4.81v13.39c.007.344-.029 1.046-.048 1.229-.331 3.485-3.135 4.614-6.63 4.614s-6.3-1.13-6.632-4.614a15.464 15.464 0 0 1-.044-1.23V.592h4.808v13.816c-.005.24.004.512.045.713.092.46.5 1.354 1.824 1.354zm39.645-.194c1.376 0 1.856-.856 1.942-1.356.04-.21.049-.471.046-.708v-2.712h-1.949V8.781H133v5.006c-.003.352-.01.609-.069 1.23-.314 3.402-3.315 4.615-6.684 4.615-3.37 0-6.369-1.213-6.686-4.615-.055-.621-.064-.878-.066-1.23l.002-7.856c0-.332.04-.917.08-1.23.423-3.49 3.3-4.614 6.671-4.614 3.37 0 6.322 1.113 6.672 4.615.061.594.04 1.229.044 1.229v.622h-4.794V5.507a4.44 4.44 0 0 0-.059-.712c-.086-.411-.447-1.355-1.9-1.355-1.383 0-1.79.894-1.894 1.355-.055.246-.077.58-.077.884v8.537c-.001.237.008.498.044.708.09.5.57 1.356 1.944 1.356z"/></svg>