<svg xmlns="http://www.w3.org/2000/svg" width="64" height="80" viewBox="0 0 64 80"><path fill="#999" d="M57.333 0H6.667A6.675 6.675 0 0 0 0 6.667v36a6.675 6.675 0 0 0 6.667 6.666h18.232L22.995 56h-4.328v2.667h26.666V56h-4.328l-1.904-6.667h18.232A6.675 6.675 0 0 0 64 42.667v-36A6.675 6.675 0 0 0 57.333 0zM25.768 56l1.904-6.667h8.656L38.232 56H25.768zm35.565-13.333a4 4 0 0 1-4 4H6.667a4 4 0 0 1-4-4V40h58.666v2.667zm0-5.334H2.667V6.667a4 4 0 0 1 4-4h50.666a4 4 0 0 1 4 4v30.666zm-33.292-7.016l2.562.734 5.338-18.656-2.562-.734-5.338 18.656zm-3.188-14.626l-1.706-2.048-8 6.666a1.333 1.333 0 0 0 0 2.048l8 6.667 1.706-2.048-6.77-5.643 6.77-5.642zm24.17 4.788a1.332 1.332 0 0 0-.17-.17l-8-6.666-1.706 2.048 6.77 5.642-6.77 5.643 1.706 2.048 8-6.667a1.333 1.333 0 0 0 .17-1.878zm-6.356 40.854c.736 0 1.333.597 1.333 1.334v16c0 .736-.597 1.333-1.333 1.333H5.333A1.333 1.333 0 0 1 4 78.667v-16c0-.737.597-1.334 1.333-1.334h37.334zm-1.334 16V64H6.667v13.333h34.666zM9.333 72H12v2.667H9.333V72zm0-5.333H12v2.666H9.333v-2.666zm5.334 0h2.666v2.666h-2.666v-2.666zm5.333 0h2.667v2.666H20v-2.666zm10.667 0h2.666v2.666h-2.666v-2.666zm-5.334 0H28v2.666h-2.667v-2.666zM36 72h2.667v2.667H36V72zm0-5.333h2.667v2.666H36v-2.666zM14.667 72h18.666v2.667H14.667V72zm38.666-10.667A6.667 6.667 0 0 1 60 68v5.333a6.667 6.667 0 0 1-13.333 0V68a6.667 6.667 0 0 1 6.666-6.667zm4 12V68a4 4 0 1 0-8 0v5.333a4 4 0 1 0 8 0zM52 66.667h2.667v2.666H52v-2.666z"/></svg>