<svg xmlns="http://www.w3.org/2000/svg" width="80" height="80" viewBox="0 0 80 80"><path fill="#999" d="M78.667 69.333c.736 0 1.333.597 1.333 1.334v4A5.333 5.333 0 0 1 74.667 80H5.333A5.333 5.333 0 0 1 0 74.667v-4c0-.737.597-1.334 1.333-1.334h1.334v-48A5.333 5.333 0 0 1 8 16h8V5.333A5.333 5.333 0 0 1 21.333 0h37.334A5.333 5.333 0 0 1 64 5.333V16h8a5.333 5.333 0 0 1 5.333 5.333v48h1.334zm-60-64v5.334h42.666V5.333a2.667 2.667 0 0 0-2.666-2.666H21.333a2.667 2.667 0 0 0-2.666 2.666zm0 8V52a2.667 2.667 0 0 0 2.666 2.667h37.334A2.667 2.667 0 0 0 61.333 52V13.333H18.667zm2.666 44A5.333 5.333 0 0 1 16 52V24h-5.333v37.333h58.666V24H64v28a5.333 5.333 0 0 1-5.333 5.333H21.333zm-16-36v48H28c.353 0 .692.14.943.39L31.219 72H48.78l2.276-2.277c.25-.25.59-.39.943-.39h22.667v-48A2.667 2.667 0 0 0 72 18.667h-8v2.666h6.667c.736 0 1.333.597 1.333 1.334v40c0 .736-.597 1.333-1.333 1.333H9.333A1.333 1.333 0 0 1 8 62.667v-40c0-.737.597-1.334 1.333-1.334H16v-2.666H8a2.667 2.667 0 0 0-2.667 2.666zm72 53.334V72H52.552l-2.276 2.276c-.25.25-.589.39-.943.39H30.667c-.354 0-.693-.14-.943-.39L27.448 72H2.667v2.667a2.667 2.667 0 0 0 2.666 2.666h69.334a2.667 2.667 0 0 0 2.666-2.666zm-54.666-32h34.666v2.666H22.667v-2.666zm0 5.333h32v2.667h-32V48zm8-10.667h26.666V40H30.667v-2.667zm-9.334-32H24V8h-2.667V5.333zm5.334 0h2.666V8h-2.666V5.333zm5.333 0h2.667V8H32V5.333zm-6.667 32H28V40h-2.667v-2.667zM35.467 22.4l-3.911 2.933 3.91 2.934-1.6 2.133-5.333-4a1.333 1.333 0 0 1 0-2.133l5.334-4 1.6 2.133zm16.266 2.133c.442.59.323 1.425-.266 1.867l-5.334 4-1.6-2.133 3.911-2.934-3.91-2.933 1.6-2.133 5.333 4c.1.076.19.165.266.266zm-15.638 6.973l5.335-13.332 2.476.99-5.335 13.333-2.476-.991zm2.572 35.16h2.666v2.667h-2.666v-2.666z"/></svg>