<svg xmlns="http://www.w3.org/2000/svg" width="56" height="90" viewBox="0 0 56 90"><g fill="none" fill-rule="evenodd"><path fill="#000" d="M7 .206c2.952.163 4.107 2.27 1.235 7.414-3.64 6.52-4.287 14.329 3.912 23.066 7.547 8.043 25.762 22.398 22.441 38.307-2.237 10.717-12.157 13.865-20.794 9.474-3.07-1.56 2.564-5.398 5.559-10.298 8.774-14.353-7.97-31.531-9.677-33.57C6.096 30.327 0 24.232 0 14.006 0 8.204 3.272 0 7 .205z"/><path fill="#CF7C3A" d="M16.47 13.18c3.98.103 2.365 3.754 12.971 1.442 2.863-.624 2.133 2.627 3.912 8.032C41.82 48.377 55.11 80.945 55.794 85.881c.287 2.07-.838 4.453-2.47 3.913.571-1.136.746-2.875-.618-3.295-3.383-1.042-15.266-24.302-16.677-27.185-2.48-5.07-8.391-22.17-19.764-32.129-3.716-3.254-8.768-10.814-6.383-10.915 4.264-.18 3.913-3.158 6.589-3.09z"/><path fill="#342F2B" d="M16.47 13.18c3.98.103 2.365 3.754 12.971 1.442 2.863-.624 2.133 2.627 3.912 8.032C41.82 48.377 55.11 80.945 55.794 85.881c.287 2.07-.838 4.453-2.47 3.913.571-1.136.763-2.938-.618-3.295-1.84-.476-1.29-1.537-4.941-12.563-4.393-13.263-17.076-39.258-25.53-48.398-5.946-6.429-8.035-1.86-11.191-5.013-.768-.767-2.878-4.205-1.162-4.255 4.266-.124 3.913-3.158 6.589-3.09z"/><ellipse cx="24.912" cy="13.593" fill="#000" fill-rule="nonzero" rx="4.324" ry="4.325"/><ellipse cx="24.912" cy="13.593" fill="#EEB55C" fill-rule="nonzero" rx="3.294" ry="3.295"/><ellipse cx="24.912" cy="13.593" fill="#000" fill-rule="nonzero" rx="1.853" ry="1.854"/><ellipse cx="23.779" cy="12.46" fill="#FFF" fill-rule="nonzero" rx="1" ry="1"/></g></svg>