<svg xmlns="http://www.w3.org/2000/svg" width="80" height="77" viewBox="0 0 80 77"><path fill="#FFF" d="M80 36.938C80 59.059 62.093 77 40 77 17.91 77 0 59.06 0 36.938c0-.903.037-1.793.094-2.676L24.31 48.217l51.297-29.558A39.974 39.974 0 0 1 80 36.938zm-55.689 1.196L1.764 25.144a39.485 39.485 0 0 0-1.082 4.419L24.31 43.176 73.406 14.89a41.82 41.82 0 0 0-2.616-3.536L24.31 38.134zm43.433-30.06a40.455 40.455 0 0 0-3.512-3.017L24.31 28.055 5.254 17.075a39.892 39.892 0 0 0-1.956 3.916l21.013 12.1L67.744 8.075zM24.31 23.017l35.882-20.67A39.957 39.957 0 0 0 55.52 0L24.31 17.977 10.415 9.971a40.742 40.742 0 0 0-2.788 3.432l16.684 9.613z"/></svg>