<svg width="1083" height="1081" viewBox="0 0 1083 1081" xmlns="http://www.w3.org/2000/svg"><defs><linearGradient x1=".026%" y1="50.188%" x2="99.858%" y2="50.188%" id="linearGradient-1"><stop offset="0%"/><stop stop-color="#1B1510" offset="38.97%"/><stop stop-color="#2F0A00" offset="100%"/></linearGradient><linearGradient x1="-184.428%" y1="-35.886%" x2="89.971%" y2="74.228%" id="linearGradient-2"><stop stop-opacity=".4" offset="0%"/><stop stop-color="#0A0909" stop-opacity=".427" offset="4.554%"/><stop stop-color="#181410" stop-opacity=".519" offset="19.86%"/><stop stop-color="#211609" stop-opacity=".61" offset="35.05%"/><stop stop-color="#271400" stop-opacity=".699" offset="49.76%"/><stop stop-color="#2A1200" stop-opacity=".783" offset="63.89%"/><stop stop-color="#2D0E00" stop-opacity=".864" offset="77.28%"/><stop stop-color="#2E0B00" stop-opacity=".938" offset="89.65%"/><stop stop-color="#2F0A00" offset="100%"/></linearGradient><linearGradient x1="-10.845%" y1="24.229%" x2="116.467%" y2="87.018%" id="linearGradient-3"><stop stop-color="#F2C245" stop-opacity="0" offset="0%"/><stop stop-color="#D76446" offset="100%"/></linearGradient><linearGradient x1="74.621%" y1="28.173%" x2="-39.595%" y2="93.538%" id="linearGradient-4"><stop stop-color="#F2C245" offset="0%"/><stop stop-color="#D76446" offset="100%"/></linearGradient><linearGradient x1="115.449%" y1="144.008%" x2="10.228%" y2="-6.771%" id="linearGradient-5"><stop stop-color="#A14944" offset="0%"/><stop stop-color="#60281E" offset="51.43%"/><stop stop-color="#2F0A00" offset="100%"/></linearGradient><linearGradient x1="12.445%" y1="71.569%" x2="95.565%" y2="3.077%" id="linearGradient-6"><stop stop-color="#F2C245" stop-opacity="0" offset="0%"/><stop stop-color="#E7A145" stop-opacity=".163" offset="16.29%"/><stop stop-color="#DF8746" stop-opacity=".336" offset="33.63%"/><stop stop-color="#DB7646" stop-opacity=".509" offset="50.92%"/><stop stop-color="#D86C46" stop-opacity=".679" offset="67.9%"/><stop stop-color="#D76646" stop-opacity=".844" offset="84.43%"/><stop stop-color="#D76446" offset="100%"/></linearGradient></defs><g id="Готово-8" stroke="none" stroke-width="1" fill="none" fill-rule="evenodd"><g id="Ivolga-Big" transform="matrix(-1 0 0 1 1084 -2)" fill-rule="nonzero"><path d="M523.179487,732 C454.076923,864.091943 386.230769,994.925868 341,1082.98716 C341,1082.98716 359.846154,1085.5032 426.435897,1020.08624 L586,732 L523.179487,732 Z" id="Shape" fill="url(#linearGradient-1)"/><path d="M442.829792,25 C442.829792,25 766.668033,337.209463 847,600.321471 C735.288359,738.801475 593.45223,659.4902 565.838116,636.829836 C538.224002,614.169471 333.628524,476.948377 442.829792,25 Z" id="Shape" fill="url(#linearGradient-2)"/><path d="M597.004599,0 C597.004599,0 809.922798,396.555578 804.912958,670.997217 C655.870218,769.191932 546.906199,649.595805 526.866839,619.382046 C508.079939,590.427195 355.27982,397.814485 597.004599,0 Z" id="Shape" fill="url(#linearGradient-3)"/><path d="M1084,336.856125 L958.49379,335.597466 C958.49379,335.597466 899.505871,285.251108 825.457206,291.544403 C752.663604,299.096356 598.290965,433.772866 514.201804,685.504659 C430.112643,937.236452 442.663264,886.890093 442.663264,886.890093 C442.663264,886.890093 604.566276,850.388983 731.327549,788.714694 C856.833759,727.040405 850.558448,628.865005 855.578697,578.518647 C860.598945,528.172288 832.987579,453.911409 896.995746,401.047733 C973.554535,360.770646 1084,336.856125 1084,336.856125 Z" id="Shape" fill="url(#linearGradient-4)"/><path d="M84,161 C84,161 515.211268,287.02106 707,483.613913 C671.901408,658.783186 510.197183,653.742344 475.098592,646.18108 C440,639.880027 195.56338,613.415605 84,161 Z" id="Shape" fill="url(#linearGradient-5)"/><path d="M0,407.534328 C0,407.534328 447.7806,371.010066 696.129505,485.620681 C726.232402,661.944704 571.955052,714.84191 536.835005,721.139197 C502.969246,726.177026 265.908928,789.149891 0,407.534328 Z" id="Shape" fill="url(#linearGradient-6)"/></g></g></svg>