<svg xmlns="http://www.w3.org/2000/svg" width="73" height="80" viewBox="0 0 73 80"><path fill="#999" d="M57.485 5.334c.436-.888.5-1.893.18-2.829A3.68 3.68 0 0 0 55.79.378a3.711 3.711 0 0 0-4.958 1.694l-3.738 7.612A22.494 22.494 0 0 0 36.5 7.047c-3.826 0-7.432.955-10.594 2.637l-3.738-7.612A3.71 3.71 0 0 0 17.21.378a3.678 3.678 0 0 0-1.874 2.127c-.32.936-.257 1.94.18 2.828l4.4 8.962c-3.747 4.036-6.042 9.436-6.042 15.363 0 .653.53 1.182 1.183 1.182h42.886c.653 0 1.182-.53 1.182-1.182 0-5.927-2.294-11.327-6.04-15.363l4.4-8.961zm-4.53-2.222a1.34 1.34 0 0 1 2.406 1.18l-4.063 8.275a22.687 22.687 0 0 0-2.17-1.661l3.827-7.794zM18.252 2.5a1.342 1.342 0 0 1 1.793.612l3.827 7.794a22.778 22.778 0 0 0-2.17 1.662l-4.063-8.275a1.34 1.34 0 0 1 .613-1.793zm-1.978 25.976C16.888 17.859 25.725 9.41 36.5 9.41c10.775 0 19.612 8.45 20.226 19.066H16.274zm45.532 10.636a5.602 5.602 0 0 1 5.597-5.594A5.602 5.602 0 0 1 73 39.112v18.907a5.602 5.602 0 0 1-5.597 5.594 5.602 5.602 0 0 1-5.597-5.594V39.112zm8.83 18.907V39.112c0-1.782-1.45-3.23-3.233-3.23a3.235 3.235 0 0 0-3.233 3.23v18.907c0 1.782 1.45 3.231 3.233 3.231a3.235 3.235 0 0 0 3.232-3.23zm-18.842-24.5h6.149c.653 0 1.182.528 1.182 1.18v30.253c0 .653-.529 1.182-1.182 1.182h-5.124v8.273A5.601 5.601 0 0 1 47.222 80a5.602 5.602 0 0 1-5.598-5.593v-8.273H31.376v8.273A5.602 5.602 0 0 1 25.778 80a5.601 5.601 0 0 1-5.597-5.593v-8.273h-5.124a1.181 1.181 0 0 1-1.182-1.182V34.7c0-.653.529-1.182 1.182-1.182H56.04a1.182 1.182 0 1 1 0 2.363h-39.8v27.89h5.125c.653 0 1.182.529 1.182 1.181v9.455c0 1.78 1.45 3.23 3.232 3.23a3.235 3.235 0 0 0 3.233-3.23v-9.455c0-.652.529-1.181 1.182-1.181h12.614c.653 0 1.182.529 1.182 1.181v9.455c0 1.78 1.45 3.23 3.233 3.23a3.235 3.235 0 0 0 3.232-3.23v-9.455c0-.652.529-1.181 1.182-1.181h5.124V35.88h-4.966a1.182 1.182 0 1 1 0-2.363zm-46.197 0a5.602 5.602 0 0 1 5.597 5.593v18.907a5.602 5.602 0 0 1-5.597 5.594A5.602 5.602 0 0 1 0 58.02V39.112a5.602 5.602 0 0 1 5.597-5.594zm3.233 24.5V39.112c0-1.782-1.45-3.23-3.233-3.23a3.235 3.235 0 0 0-3.232 3.23v18.907c0 1.782 1.45 3.231 3.232 3.231a3.235 3.235 0 0 0 3.233-3.23zm17.58-39.627a3.709 3.709 0 0 0-3.706 3.703 3.709 3.709 0 0 0 3.705 3.703 3.709 3.709 0 0 0 3.706-3.703 3.709 3.709 0 0 0-3.706-3.703zm0 5.042c-.74 0-1.34-.6-1.34-1.34a1.34 1.34 0 0 1 2.68 0 1.34 1.34 0 0 1-1.34 1.34zm16.475-1.34a3.709 3.709 0 0 0 3.706 3.704 3.709 3.709 0 0 0 3.705-3.703 3.709 3.709 0 0 0-3.705-3.703 3.709 3.709 0 0 0-3.706 3.703zm3.706 1.34c-.74 0-1.34-.6-1.34-1.34a1.34 1.34 0 0 1 2.68 0 1.34 1.34 0 0 1-1.34 1.34z"/></svg>