<svg xmlns="http://www.w3.org/2000/svg" width="17" height="14" viewBox="0 0 17 14"><path fill="#FFF" fill-rule="evenodd" d="M8.254 3.724l.037.606-.614-.074C5.442 3.97 3.488 3.007 1.83 1.389L1.02.585l-.21.593c-.441 1.323-.159 2.72.762 3.658.492.52.381.594-.466.285-.295-.1-.553-.173-.578-.136-.086.086.209 1.21.442 1.656.32.618.97 1.223 1.683 1.582l.602.284-.712.012c-.688 0-.713.012-.64.272.247.803 1.217 1.656 2.298 2.027l.762.26-.664.395a6.934 6.934 0 0 1-3.292.914C.454 12.4 0 12.45 0 12.486c0 .124 1.499.816 2.37 1.088 2.617.803 5.725.457 8.059-.915 1.658-.976 3.316-2.916 4.09-4.795.418-1 .835-2.83.835-3.707 0-.569.037-.643.725-1.323.405-.395.786-.828.86-.951.123-.235.11-.235-.516-.025-1.044.37-1.192.321-.676-.235.381-.395.836-1.112.836-1.322 0-.037-.185.025-.393.136-.222.124-.713.309-1.081.42l-.664.21-.602-.408C13.512.437 13.045.19 12.8.116c-.626-.173-1.584-.149-2.15.05C9.115.72 8.145 2.154 8.255 3.723z"/></svg>