<svg xmlns="http://www.w3.org/2000/svg" width="65" height="80" viewBox="0 0 65 80"><path fill="none" stroke="#999" stroke-width="3" d="M52.788 42.521c-.049-4.95 1.72-9.13 4.683-12.537a21.269 21.269 0 0 1 3.299-3.067c-3.377-4.151-7.995-5.881-12.612-6.077-2.526-.256-5.016.313-8.637 1.71-.263.101-.527.205-.88.344l-.856.338a44.99 44.99 0 0 1-1.644.617c-1.267.442-2.233.667-3.116.667-1.542 0-1.89-.118-6.293-1.845-2.977-1.168-4.884-1.672-6.856-1.636-6.205.092-11.986 3.617-15.234 9.278C-1.28 40.614 1.7 57.537 9.635 69.02c4.717 6.837 7.672 9.611 11.305 9.476 1.626-.065 2.803-.402 4.814-1.255l.61-.26c2.97-1.266 4.822-1.764 7.714-1.764 2.77 0 4.55.486 7.386 1.713l.61.264c2.111.908 3.346 1.235 5.154 1.2 3.875-.072 6.412-2.45 11.004-9.173a42.656 42.656 0 0 0 4.03-7.436 41 41 0 0 0 .897-2.306 20.47 20.47 0 0 1-4.549-3.271c-3.589-3.418-5.772-7.956-5.822-13.687zm0 0v.001zm-9.709-30.7c2.418-2.94 3.862-6.614 3.894-10.15-3.263.606-6.928 2.697-9.203 5.367-2.413 2.8-3.981 6.532-3.973 9.909 3.33-.219 6.87-2.203 9.282-5.126z"/></svg>