<svg xmlns="http://www.w3.org/2000/svg" width="80" height="80" viewBox="0 0 80 80"><path fill="#999" d="M73.333 0A6.675 6.675 0 0 1 80 6.667V48a6.675 6.675 0 0 1-6.667 6.667H56V52h17.333a4 4 0 0 0 4-4V6.667a4 4 0 0 0-4-4h-56a4 4 0 0 0-4 4V28h-2.666V6.667A6.675 6.675 0 0 1 17.333 0h56zM16 5.333h2.667V8H16V5.333zm5.333 0H24V8h-2.667V5.333zm5.334 0h2.666V8h-2.666V5.333zM16 10.667h58.667v2.666H16v-2.666zM16 16h13.333v2.667H16V16zm0 5.333h8V24h-8v-2.667zm22.667 4H36V24h-5.333v-1.333c0-.737.596-1.334 1.333-1.334h5.333c.737 0 1.334.597 1.334 1.334v2.666zM49.333 32h-2.666V20H44v8h-2.667v-9.333c0-.737.597-1.334 1.334-1.334H48c.737 0 1.333.597 1.333 1.334V32zm8 13.333v-16h-2.666V40H52V28c0-.737.597-1.333 1.333-1.333h5.334c.736 0 1.333.596 1.333 1.333v17.333h2.667V18.667c0-.737.596-1.334 1.333-1.334h5.333c.737 0 1.334.597 1.334 1.334v26.666h4V48H56v-2.667h1.333zm8-25.333v25.333H68V20h-2.667zm-38.666 6.667c14.72.016 26.65 11.946 26.666 26.666C53.333 68.062 41.395 80 26.667 80 11.938 80 0 68.062 0 53.333c0-14.728 11.938-26.666 26.667-26.666zm0 50.666a23.818 23.818 0 0 0 16-6.113L25.725 54.277l-.008-.009a1.348 1.348 0 0 1-.251-.375.377.377 0 0 1-.029-.047c-.018-.026-.01-.059-.018-.085a1.276 1.276 0 0 1-.07-.345c0-.03-.016-.054-.016-.083V29.37C12.35 30.081 2.295 41.003 2.656 54c.361 12.998 11.008 23.344 24.01 23.333zm17.886-8a23.795 23.795 0 0 0 6.078-14.666H29.887l14.666 14.666zM28 52h22.63C49.936 39.8 40.2 30.065 28 29.37V52z"/></svg>